<?xml version="1.0" encoding="UTF-8" standalone="no"?>
<svg
   viewBox="-25 201 648.84064 198.07579"
   version="1.1"
   id="svg1"
   sodipodi:docname="lattice_icon_white_lockup.svg"
   width="648.84064"
   height="198.07579"
   inkscape:version="1.4 (e7c3feb1, 2024-10-09)"
   xmlns:inkscape="http://www.inkscape.org/namespaces/inkscape"
   xmlns:sodipodi="http://sodipodi.sourceforge.net/DTD/sodipodi-0.dtd"
   xmlns="http://www.w3.org/2000/svg"
   xmlns:svg="http://www.w3.org/2000/svg">
  <defs
     id="defs1" />
  <!-- Wordmark: DM Sans Medium, converted to outlines so it renders
       without the font installed. Tracked to the original canvas. -->
  <sodipodi:namedview
     id="namedview1"
     pagecolor="#ffffff"
     bordercolor="#000000"
     borderopacity="0.25"
     inkscape:showpageshadow="2"
     inkscape:pageopacity="0.0"
     inkscape:pagecheckerboard="0"
     inkscape:deskcolor="#d1d1d1"
     inkscape:zoom="1"
     inkscape:cx="320.5"
     inkscape:cy="92.5"
     inkscape:window-width="2560"
     inkscape:window-height="1290"
     inkscape:window-x="1800"
     inkscape:window-y="30"
     inkscape:window-maximized="1"
     inkscape:current-layer="svg1" />
  <!-- Lattice mark: 8 evenly-rotated ellipses forming a woven-sphere rosette -->
  <g
     transform="matrix(0.38615157,0,0,0.38615157,-61.115154,164.88485)"
     fill="none"
     stroke="#fbf8ff"
     stroke-width="12.9483"
     id="g1">
    <ellipse
       cx="350"
       cy="350"
       rx="250"
       ry="95"
       fill="none"
       stroke="#fbf8ff"
       stroke-width="12.9483"
       id="ellipse1" />
    <ellipse
       cx="350"
       cy="350"
       rx="250"
       ry="95"
       fill="none"
       stroke="#fbf8ff"
       stroke-width="12.9483"
       transform="rotate(22.5,350,350)"
       id="ellipse2" />
    <ellipse
       cx="350"
       cy="350"
       rx="250"
       ry="95"
       fill="none"
       stroke="#fbf8ff"
       stroke-width="12.9483"
       transform="rotate(45,350,350)"
       id="ellipse3" />
    <ellipse
       cx="350"
       cy="350"
       rx="250"
       ry="95"
       fill="none"
       stroke="#fbf8ff"
       stroke-width="12.9483"
       transform="rotate(67.5,350,350)"
       id="ellipse4" />
    <ellipse
       cx="350"
       cy="350"
       rx="250"
       ry="95"
       fill="none"
       stroke="#fbf8ff"
       stroke-width="12.9483"
       transform="rotate(90,350,350)"
       id="ellipse5" />
    <ellipse
       cx="350"
       cy="350"
       rx="250"
       ry="95"
       fill="none"
       stroke="#fbf8ff"
       stroke-width="12.9483"
       transform="rotate(112.5,350,350)"
       id="ellipse6" />
    <ellipse
       cx="350"
       cy="350"
       rx="250"
       ry="95"
       fill="none"
       stroke="#fbf8ff"
       stroke-width="12.9483"
       transform="rotate(135,350,350)"
       id="ellipse7" />
    <ellipse
       cx="350"
       cy="350"
       rx="250"
       ry="95"
       fill="none"
       stroke="#fbf8ff"
       stroke-width="12.9483"
       transform="rotate(157.5,350,350)"
       id="ellipse8" />
  </g>
  <g
     fill="#fbf8ff"
     stroke="none"
     id="wordmark">
    <path
       transform="translate(191.2904,357.6986) scale(0.164745,-0.164745)"
       d="M69.0 0.0V720.0H169.0V0.0Z" />
    <path
       transform="translate(221.0976,357.6986) scale(0.164745,-0.164745)"
       d="M235.0 -12.0Q173.0 -12.0 132.0 9.0Q91.0 30.0 71.0 65.5Q51.0 101.0 51.0 143.0Q51.0 192.0 76.5 227.5Q102.0 263.0 150.5 282.0Q199.0 301.0 267.0 301.0H397.0Q397.0 345.0 384.0 374.0Q371.0 403.0 345.5 418.0Q320.0 433.0 281.0 433.0Q236.0 433.0 204.0 411.0Q172.0 389.0 164.0 347.0H64.0Q70.0 401.0 100.5 438.0Q131.0 475.0 179.0 495.5Q227.0 516.0 281.0 516.0Q352.0 516.0 400.0 491.0Q448.0 466.0 472.5 420.5Q497.0 375.0 497.0 312.0V0.0H410.0L402.0 85.0Q392.0 65.0 376.5 47.0Q361.0 29.0 340.0 16.0Q319.0 3.0 293.0 -4.5Q267.0 -12.0 235.0 -12.0ZM254.0 69.0Q286.0 69.0 312.0 82.0Q338.0 95.0 356.0 118.0Q374.0 141.0 384.0 169.0Q394.0 197.0 395.0 228.0V230.0H277.0Q233.0 230.0 206.5 220.0Q180.0 210.0 168.0 191.5Q156.0 173.0 156.0 149.0Q156.0 125.0 167.5 107.0Q179.0 89.0 201.0 79.0Q223.0 69.0 254.0 69.0Z" />
    <path
       transform="translate(301.8109,357.6986) scale(0.164745,-0.164745)"
       d="M276.0 0.0Q229.0 0.0 193.5 15.0Q158.0 30.0 139.5 65.0Q121.0 100.0 121.0 160.0V420.0H33.0V504.0H121.0L133.0 631.0H221.0V504.0H362.0V420.0H221.0V159.0Q221.0 116.0 238.5 100.5Q256.0 85.0 300.0 85.0H358.0V0.0Z" />
    <path
       transform="translate(359.2952,357.6986) scale(0.164745,-0.164745)"
       d="M276.0 0.0Q229.0 0.0 193.5 15.0Q158.0 30.0 139.5 65.0Q121.0 100.0 121.0 160.0V420.0H33.0V504.0H121.0L133.0 631.0H221.0V504.0H362.0V420.0H221.0V159.0Q221.0 116.0 238.5 100.5Q256.0 85.0 300.0 85.0H358.0V0.0Z" />
    <path
       transform="translate(416.7796,357.6986) scale(0.164745,-0.164745)"
       d="M75.0 0.0V504.0H175.0V0.0ZM125.0 599.0Q97.0 599.0 78.0 617.0Q59.0 635.0 59.0 663.0Q59.0 690.0 78.0 707.5Q97.0 725.0 125.0 725.0Q153.0 725.0 172.0 707.5Q191.0 690.0 191.0 663.0Q191.0 635.0 172.0 617.0Q153.0 599.0 125.0 599.0Z" />
    <path
       transform="translate(448.8931,357.6986) scale(0.164745,-0.164745)"
       d="M301.0 -12.0Q229.0 -12.0 171.5 21.5Q114.0 55.0 82.0 114.0Q50.0 173.0 50.0 251.0Q50.0 330.0 82.0 389.0Q114.0 448.0 171.5 482.0Q229.0 516.0 301.0 516.0Q393.0 516.0 455.0 468.0Q517.0 420.0 533.0 339.0H430.0Q420.0 382.0 384.5 406.0Q349.0 430.0 300.0 430.0Q259.0 430.0 225.0 410.0Q191.0 390.0 171.5 350.0Q152.0 310.0 152.0 252.0Q152.0 209.0 163.5 175.0Q175.0 141.0 195.0 119.0Q215.0 97.0 242.5 85.0Q270.0 73.0 300.0 73.0Q333.0 73.0 359.5 83.5Q386.0 94.0 404.5 115.0Q423.0 136.0 430.0 165.0H533.0Q517.0 86.0 454.5 37.0Q392.0 -12.0 301.0 -12.0Z" />
    <path
       transform="translate(535.7021,357.6986) scale(0.164745,-0.164745)"
       d="M296.0 -12.0Q223.0 -12.0 167.5 21.0Q112.0 54.0 81.0 113.0Q50.0 172.0 50.0 251.0Q50.0 330.0 80.5 389.5Q111.0 449.0 167.5 482.5Q224.0 516.0 298.0 516.0Q372.0 516.0 425.0 483.0Q478.0 450.0 506.5 396.0Q535.0 342.0 535.0 275.0Q535.0 265.0 535.0 253.5Q535.0 242.0 534.0 229.0H123.0V299.0H436.0Q433.0 361.0 394.0 397.0Q355.0 433.0 296.0 433.0Q256.0 433.0 222.0 414.5Q188.0 396.0 168.0 360.5Q148.0 325.0 148.0 271.0V243.0Q148.0 187.0 168.0 149.0Q188.0 111.0 222.0 91.0Q256.0 71.0 296.0 71.0Q344.0 71.0 375.5 92.5Q407.0 114.0 421.0 149.0H521.0Q509.0 103.0 478.0 66.5Q447.0 30.0 401.5 9.0Q356.0 -12.0 296.0 -12.0Z" />
  </g>
</svg>
